<svg height="512" viewBox="0 0 512 512" width="512" xmlns="http://www.w3.org/2000/svg"><g id="Filled_outline" data-name="Filled outline"><path d="m448 417.97v78.03h-384v-78.03a64 64 0 0 1 48.48-62.09l79.52-19.88 16-8v-72h96v72l16 8 79.52 19.88a64 64 0 0 1 48.48 62.09z" fill="#fdc8a2"/><path d="m304 256v27.2l-.95 1.52a24 24 0 0 1 -20.35 11.28h-53.4a24 24 0 0 1 -20.35-11.28l-.95-1.52v-27.2z" fill="#fdbf92"/><path d="m399.522 355.881-79.522-19.881c-23.109 57.773-104.891 57.773-128 0l-79.522 19.881a64 64 0 0 0 -48.478 62.089v78.03h384v-78.03a64 64 0 0 0 -48.478-62.089z" fill="#dfdfdd"/><path d="m282.7 272h-53.4a24 24 0 0 1 -20.352-11.28l-26.87-42.992a40 40 0 0 1 -6.08-21.2v-76.528a80 80 0 0 1 80-80 80 80 0 0 1 80 80v76.528a40 40 0 0 1 -6.08 21.2l-26.868 42.992a24 24 0 0 1 -20.35 11.28z" fill="#fdc8a2"/><path d="m172 184h4v-56h-4a28 28 0 0 0 -28 28 28 28 0 0 0 28 28z" fill="#fdb683"/><path d="m340 128h-4v56h4a28 28 0 0 0 28-28 28 28 0 0 0 -28-28z" fill="#fdb683"/><path d="m304 64 32 64v-56a32 32 0 0 0 -32-32z" fill="#804a32"/><path d="m176 128v-64h32z" fill="#804a32"/><path d="m304 40v24h-128a39.875 39.875 0 0 1 11.72-28.28 41.01 41.01 0 0 1 6.11-5.02 39.923 39.923 0 0 1 14.83-6.02 39.452 39.452 0 0 1 7.34-.68h62.11a28.939 28.939 0 0 1 25.89 16z" fill="#91563a"/><path d="m208 304v192h-144v-78.03a64 64 0 0 1 48.48-62.09l79.52-19.88z" fill="#2f486e"/><path d="m448 417.97v78.03h-144v-192l16 32 79.52 19.88a64.018 64.018 0 0 1 48.48 62.09z" fill="#2f486e"/><path d="m208 304-56 72 32 16-16 32 40 64z" fill="#415e89"/><path d="m304 304 56 72-32 16 16 32-40 64z" fill="#415e89"/><path d="m192 128h40a16 16 0 0 1 16 16v8a32 32 0 0 1 -32 32h-8a32 32 0 0 1 -32-32v-8a16 16 0 0 1 16-16z" fill="#dfdfdd"/><path d="m280 128h40a16 16 0 0 1 16 16v8a32 32 0 0 1 -32 32h-8a32 32 0 0 1 -32-32v-8a16 16 0 0 1 16-16z" fill="#dfdfdd"/><path d="m401.46 348.119-65.807-16.452-23.653-30.411v-39.762l24.706-39.528a47.993 47.993 0 0 0 7.294-25.436v-4.758a35.994 35.994 0 0 0 0-71.544v-48.228a40.051 40.051 0 0 0 -35.264-39.71 36.7 36.7 0 0 0 -30.625-16.29h-62.111a47.6 47.6 0 0 0 -28.81 9.6l9.61 12.8c.087-.065.179-.12.267-.184l7.117 17.784h-19.184a31.715 31.715 0 0 1 5.393-11.195l-12.793-9.605a47.6 47.6 0 0 0 -9.6 28.8v56.228a35.994 35.994 0 0 0 0 71.544v4.758a48.007 48.007 0 0 0 7.3 25.441l24.7 39.523v39.762l-23.655 30.414-65.8 16.448a71.9 71.9 0 0 0 -54.545 69.852v78.03h16v-78.03a55.9 55.9 0 0 1 11.993-34.662l30.35 30.349 11.314-11.314-30.057-30.062a55.989 55.989 0 0 1 18.826-8.64l46-11.5-14.736 18.947a8.1 8.1 0 0 0 2.736 12.066l24.845 12.423-12.422 24.844a8 8 0 0 0 .371 7.818l38.78 62.061v5.7h16v-119.643a78.393 78.393 0 0 0 80 0v11.993c-8.026 5.75-20.912 11.65-40 11.65a77.708 77.708 0 0 1 -21.758-2.939l-4.484 15.359a93.693 93.693 0 0 0 26.242 3.58c17.055 0 30.2-4.007 40-9v89h16v-5.7l38.784-62.055a8 8 0 0 0 .371-7.818l-12.422-24.844 24.845-12.423a8.065 8.065 0 0 0 2.736-12.066l-14.737-18.954 46 11.5a55.982 55.982 0 0 1 18.825 8.639l-30.062 30.062 11.314 11.314 30.35-30.349a55.9 55.9 0 0 1 11.996 34.664v6.03h16v-6.03a71.893 71.893 0 0 0 -54.54-69.851zm-217.6-204.145c.782-4.506 3.14-7.974 8.14-7.974h39.972c11.035 0 9.068 16.52 6.727 23.328-4.579 13.321-19.688 18.621-32.789 15.9-7.835-1.626-15.263-6.029-19.166-13.2-2.102-3.861-3.954-11.92-2.886-18.054zm78.271-15.974h-12.262a24.156 24.156 0 0 0 -6.322-5.032l11.109-7.406-16-24-13.312 8.876 13.756 20.635a23.912 23.912 0 0 0 -7.1-1.073s-42.127-.137-43.163 0l24.107-48h86.112l24.107 48c-1.036-.137-43.163 0-43.163 0a23.943 23.943 0 0 0 -17.869 8zm-8.715-72-9.6-24h14.768l9.6 24zm18.266 87.964c.577-4.57 2.936-7.964 8.318-7.964h40c10.557 0 9.173 16.227 6.994 22.99-2.665 8.277-9.7 13.655-17.886 15.931-11.095 3.085-23.728.58-31.238-8.607-3.178-3.892-7.148-14.748-6.188-22.35zm88.318 12.036a20.038 20.038 0 0 1 -16 19.6v-39.2a20.038 20.038 0 0 1 16 19.6zm-32-84v22.111l-16-32v-12.74a24.042 24.042 0 0 1 16 22.629zm-32-29.952v13.952h-10.584l-9.6-24h2.3a20.818 20.818 0 0 1 17.884 10.048zm-69.416-10.048 9.6 24h-14.768l-9.488-23.72c1.342-.17 14.656-.28 14.656-.28zm-31.528 40-11.056 22.111v-22.111zm-43.056 84a20.038 20.038 0 0 1 16-19.6v39.2a20.038 20.038 0 0 1 -16-19.6zm32 40.53v-12.552a39.788 39.788 0 0 0 24 8.022h8a39.788 39.788 0 0 0 24-8.022v8.022h16v-40a40.045 40.045 0 0 0 40 40h8a39.788 39.788 0 0 0 24-8.022v12.552a32.006 32.006 0 0 1 -4.864 16.96l-26.869 42.989a15.914 15.914 0 0 1 -13.567 7.521h-53.4a15.911 15.911 0 0 1 -13.566-7.521l-26.867-42.979a32.012 32.012 0 0 1 -4.867-16.97zm-6.838 227.034 13.993-27.986a8 8 0 0 0 -3.577-10.733l-23.272-11.636 35.694-45.893v132.789zm78.838-52.234a60.536 60.536 0 0 1 -40-14.677v-79.534a32.006 32.006 0 0 0 13.3 2.881h53.4a32.01 32.01 0 0 0 13.3-2.881v79.534a60.536 60.536 0 0 1 -40 14.677zm68.422 13.515a8 8 0 0 0 -3.577 10.733l13.993 27.986-22.838 36.541v-132.789l35.694 45.893z"/><path d="m440 440h16v56h-16z"/><path d="m281.573 223.844-3.143-15.689c-.231.047-23.34 4.6-45.987 3.339l-.886 15.975c3.091.172 6.173.247 9.207.247a230.934 230.934 0 0 0 40.809-3.872z"/><path d="m120 458.806c-6.345-10.956-12.608-25.943-16.411-37.337l-15.179 5.061c2.612 7.832 15.543 44.678 31.59 57.7v11.77h16v-72h-16z"/><path d="m392 458.819v-34.819h-16v72h16v-11.772c16.047-13.02 28.979-49.866 31.59-57.7l-15.18-5.06c-3.799 11.399-10.061 26.393-16.41 37.351z"/></g></svg>